<svg id="Calque_1" data-name="Calque 1" xmlns="http://www.w3.org/2000/svg" xmlns:xlink="http://www.w3.org/1999/xlink" viewBox="0 0 56.89 56.35"><defs><style>.cls-1{fill:url(#Ciel_1);}.cls-2{fill:url(#Ciel_1-2);}.cls-3{fill:url(#Ciel_1-3);}.cls-4{fill:url(#Ciel_1-4);}.cls-5{fill:url(#Ciel_1-5);}.cls-6{fill:url(#Ciel_1-6);}.cls-7{fill:url(#Ciel_1-7);}.cls-8{fill:url(#Ciel_1-8);}.cls-9{fill:url(#Ciel_1-9);}.cls-10{fill:url(#Ciel_1-10);}</style><linearGradient id="Ciel_1" x1="12.02" y1="30.02" x2="29.06" y2="30.02" gradientUnits="userSpaceOnUse"><stop offset="0" stop-color="#6fb6e2"/><stop offset="0.09" stop-color="#66b1df"/><stop offset="0.24" stop-color="#4ca4d7"/><stop offset="0.43" stop-color="#2390ca"/><stop offset="0.57" stop-color="#007ebf"/><stop offset="1" stop-color="#0a5ba6"/></linearGradient><linearGradient id="Ciel_1-2" x1="23.37" y1="27.56" x2="41.11" y2="27.56" xlink:href="#Ciel_1"/><linearGradient id="Ciel_1-3" x1="34.77" y1="29.66" x2="45.7" y2="29.66" xlink:href="#Ciel_1"/><linearGradient id="Ciel_1-4" x1="0" y1="34.98" x2="21.34" y2="34.98" xlink:href="#Ciel_1"/><linearGradient id="Ciel_1-5" x1="39.73" y1="29.38" x2="50.78" y2="29.38" xlink:href="#Ciel_1"/><linearGradient id="Ciel_1-6" x1="39.85" y1="6.23" x2="56.89" y2="6.23" xlink:href="#Ciel_1"/><linearGradient id="Ciel_1-7" x1="2.49" y1="7.39" x2="12.13" y2="7.39" xlink:href="#Ciel_1"/><linearGradient id="Ciel_1-8" x1="16.79" y1="9.69" x2="22.31" y2="9.69" xlink:href="#Ciel_1"/><linearGradient id="Ciel_1-9" x1="24.43" y1="11.73" x2="30.32" y2="11.73" xlink:href="#Ciel_1"/><linearGradient id="Ciel_1-10" x1="32.38" y1="9.69" x2="37.45" y2="9.69" xlink:href="#Ciel_1"/></defs><title>fav</title><path class="cls-1" d="M15.4,16.25c4.88-1,13.62,2.55,13.66,3.29a33.91,33.91,0,0,0-5.65,5.27c-4.16,4.73-8.7,11.87-8,19.16C11.27,33.64,10.52,24.2,15.4,16.25Z" transform="translate(-2.78 -3.61)"/><path class="cls-2" d="M41.11,15.53c-6.41,6.16-10.21,14.27-11.75,24C28,33,26,28.43,23.37,25.88A27.89,27.89,0,0,1,41.11,15.53Z" transform="translate(-2.78 -3.61)"/><path class="cls-3" d="M41.11,43.25q8.72-16.78.88-27.18a29.13,29.13,0,0,0-7.22,7.79C38.83,28.43,40.47,35.36,41.11,43.25Z" transform="translate(-2.78 -3.61)"/><polygon class="cls-4" points="7.55 13.6 7.55 18.1 4.82 18.1 5.63 40.76 10.61 41.41 16.31 46.31 16.31 42.29 20.09 42.13 21.34 56.35 8.84 45.66 1.61 45.1 0 14.09 7.55 13.6"/><polygon class="cls-5" points="42.51 12.46 42.51 16.66 46.2 16.66 46.2 41.56 39.73 41.56 39.73 46.31 50.46 46.31 50.78 12.46 42.51 12.46"/><polygon class="cls-6" points="39.85 12.46 54.56 0 56.89 5.79 39.85 12.46"/><polygon class="cls-7" points="12.13 12.46 7.39 2.33 2.49 4.82 12.13 12.46"/><circle class="cls-8" cx="19.55" cy="9.69" r="2.76"/><circle class="cls-9" cx="27.37" cy="11.73" r="2.95"/><ellipse class="cls-10" cx="34.92" cy="9.69" rx="2.54" ry="2.76"/></svg>